<svg xmlns="http://www.w3.org/2000/svg" viewBox="0 0 169.19 20.64"><defs><style>.cls-1{fill:#3cc;}.cls-2{fill:#fff;}</style></defs><title>btn_1_2</title><g id="Layer_2" data-name="Layer 2"><g id="Layer_1-2" data-name="Layer 1"><path d="M110.93,2A3.64,3.64,0,0,0,110,1,4.63,4.63,0,0,0,108.77.4a6.86,6.86,0,0,0-1.49-.31A17.21,17.21,0,0,0,105.55,0h-5.09a.89.89,0,0,0-.94.88V9.26a7.85,7.85,0,0,0,3.33,3.59V11.19a1,1,0,0,1,.92-1.07h1.5A7.38,7.38,0,0,0,110,8.79a4.76,4.76,0,0,0,1.64-3.93,6.31,6.31,0,0,0-.17-1.49A4.69,4.69,0,0,0,110.93,2Zm-3,4.3a1.81,1.81,0,0,1-.75.72,3,3,0,0,1-1.09.29q-.62.06-1.27.06h-1.43c-.35,0-.57-.29-.57-.72V3.27a.5.5,0,0,1,.54-.55h1.46c.47,0,.92,0,1.33,0a2.9,2.9,0,0,1,1.08.27,1.64,1.64,0,0,1,.72.68,2.67,2.67,0,0,1,.26,1.3A2.66,2.66,0,0,1,108,6.34Zm-5.11,7.05a9.17,9.17,0,0,1-3.33-2.15v4s-.06.66.57.66h2.22c.61,0,.53-.66.53-.66Zm31.45-9h-2a.81.81,0,0,0-.83.63l-2.27,6.43L127,5.16a.93.93,0,0,0-.89-.75h-1.83c-.65,0-.65.52-.57.72s2.57,7.15,3.53,9.81a3.93,3.93,0,0,1,.32,1,2.73,2.73,0,0,1-.39,1,2.54,2.54,0,0,1-.25.36,10,10,0,0,0,5.14-4.87c1.1-3.12,2.56-7.24,2.62-7.45S134.82,4.41,134.31,4.41Zm-8.8,13.53a4.78,4.78,0,0,1-.52,0c-.21,0-.6,0-.6.36v1.56c0,.6.28.64.44.67a6.41,6.41,0,0,0,1.41.14,3.63,3.63,0,0,0,1.64-.35,4,4,0,0,0,1.23-1,6.91,6.91,0,0,0,1-1.48q.42-.86.8-1.89l.29-.82C130.61,15.69,128,18.19,125.51,17.94Zm-3-11.68a2.72,2.72,0,0,0-.44-.72,3.08,3.08,0,0,0-.62-.54,4.59,4.59,0,0,0-.78-.41,5.91,5.91,0,0,0-.86-.27,6.9,6.9,0,0,0-1-.15c-.37,0-.78,0-1.23,0q-4.53,0-5.16,2.91a.48.48,0,0,0,.45.64h1.86c.49,0,.46-.16.7-.6a1.32,1.32,0,0,1,.44-.61,2.57,2.57,0,0,1,1.6-.42,2.25,2.25,0,0,1,1.49.4,1.79,1.79,0,0,1,.55,1.23c0,.64-.2,1.06-1,1.06a10.21,10.21,0,0,0-4.95.8,3.75,3.75,0,0,0-1.75,3.29,3.4,3.4,0,0,0,.3,1.47,2.94,2.94,0,0,0,.82,1.05,3.52,3.52,0,0,0,1.25.63,5.7,5.7,0,0,0,1.59.21,6.77,6.77,0,0,0,2.13-.31,7.89,7.89,0,0,0,1.69-1v.36c0,.36.11.67.53.67h2.16c.44,0,.53-.32.53-.71V8.48a8.45,8.45,0,0,0-.08-1.26A4,4,0,0,0,122.52,6.27Zm-2.94,6.63A2.65,2.65,0,0,1,117,14.07a2.19,2.19,0,0,1-1.33-.38,1.35,1.35,0,0,1-.51-1.17,1.51,1.51,0,0,1,.84-1.46,6.28,6.28,0,0,1,2.51-.43c.84,0,1.05.56,1.05.93Z"/><path class="cls-1" d="M168.79,8.55a2.62,2.62,0,0,1,0,2.73A62.52,62.52,0,0,1,164.64,16a4.53,4.53,0,0,1-2.9,1.68h-22c-3,0-3.15-1-3.15-3.33V5c0-2.36.68-3,2.71-3h22.39a4.3,4.3,0,0,1,3.05,1.65C165.7,4.54,168.42,8,168.79,8.55Z"/><path class="cls-2" d="M141.6,5.58V5.52c0-.3,0-.6-.51-.6h-1.83c-.43,0-.45.24-.45.61V8A7.71,7.71,0,0,1,141.6,5.58Z"/><path class="cls-2" d="M153.92,14.53V14.4h0v-6q0-3.75-3.25-3.75a3.2,3.2,0,0,0-1.7.47,6.23,6.23,0,0,0-1.49,1.32,2.62,2.62,0,0,0-1.06-1.36,3.43,3.43,0,0,0-1.83-.44,4.2,4.2,0,0,0-2.59.9c-.16.16-3.21,2.6-3.21,5.1v3.82c0,.12-.06.58.45.58h1.91c.59,0,.54-.4.54-.56V8.36c.32-.43,1-1.51,2.05-1.51a1,1,0,0,1,.89.42,2.75,2.75,0,0,1,.27,1.42v4.82h0v1c0,.12-.06.58.45.58h1.89c.59,0,.54-.4.54-.56V14.4h0v-6c.35-.43,1-1.51,2.05-1.51a1,1,0,0,1,.91.42A2.72,2.72,0,0,1,151,8.69v4.82h0v1c0,.12-.06.58.45.58h1.91C154,15.09,153.92,14.7,153.92,14.53Z"/><path class="cls-2" d="M164.44,12.11a4.37,4.37,0,0,1-4.32,2.9c-2.92,0-4.85-2-4.85-5.06s2-5.17,4.76-5.17,4.56,1.93,4.67,5c0,.4-.1.75-.59.75h-6.2c0,1.67.83,2.57,2.22,2.57a1.92,1.92,0,0,0,1.8-1.1.68.68,0,0,1,.58-.3h1.6A.33.33,0,0,1,164.44,12.11ZM160,6.71a2.15,2.15,0,0,0-2.11,2.17h4.15C162,7.7,161.33,6.71,160,6.71Z"/><path d="M6,10.86a3.25,3.25,0,0,1-.82,2.36,2.92,2.92,0,0,1-2.2.85A2.84,2.84,0,0,1,.8,13.22,3.3,3.3,0,0,1,0,10.86V8.52A3.32,3.32,0,0,1,.8,6.15,2.81,2.81,0,0,1,3,5.3a2.91,2.91,0,0,1,2.2.85A3.27,3.27,0,0,1,6,8.52ZM4.8,8.5a2.59,2.59,0,0,0-.48-1.69A1.67,1.67,0,0,0,3,6.23a1.58,1.58,0,0,0-1.31.58A2.66,2.66,0,0,0,1.18,8.5v2.36a2.69,2.69,0,0,0,.46,1.7A1.59,1.59,0,0,0,3,13.15a1.66,1.66,0,0,0,1.36-.58,2.64,2.64,0,0,0,.47-1.71Z"/><path d="M13.09,13.95H11.9V6.33H8.56v7.61H7.36V5.42h5.73Z"/><path d="M20.43,5.42v8.53H19.23V6.33H16.82v3a8,8,0,0,1-.58,3.52,1.93,1.93,0,0,1-1.83,1.09h-.23V13h.2a1,1,0,0,0,1-.81,10.61,10.61,0,0,0,.28-2.91l0-3.91Z"/><path d="M25.92,11.79H23.38l-.61,2.16H21.52l2.56-8.53h1.15l2.54,8.53H26.54Zm-2.28-.94h2l-1-3.47h0Z"/><path d="M33.1,6.33H30.84v7.61H29.64V6.33H27.4V5.42h5.7Z"/><path d="M38.63,5.42h1.19v8.53H38.63V7.7h0l-3.31,6.26H34.09V5.42h1.19v6.25h0Z"/><path d="M46.36,6.33H44.1v7.61H42.9V6.33H40.66V5.42h5.7Z"/><path d="M48.63,8.77h1.53a2.43,2.43,0,0,1,2.61,2.57,2.59,2.59,0,0,1-.7,1.88,2.54,2.54,0,0,1-1.91.72H47.44V5.42h1.19Zm0,.91V13h1.53a1.23,1.23,0,0,0,1.06-.5,2,2,0,0,0,.36-1.22,1.88,1.88,0,0,0-.36-1.17,1.25,1.25,0,0,0-1.06-.48Z"/><path d="M62.16,5.42v8.53H61V10.36a5.14,5.14,0,0,1-.84.21,5.71,5.71,0,0,1-.9.07,2.76,2.76,0,0,1-2-.64,2.68,2.68,0,0,1-.68-2V5.42h1.19V8a2.09,2.09,0,0,0,.35,1.38,1.41,1.41,0,0,0,1.1.39,5.57,5.57,0,0,0,.88-.07,5.89,5.89,0,0,0,.86-.2v-4Z"/><path d="M67.86,10H65V13h3.41v.9h-4.6V5.42h4.57v.91H65V9.08h2.89Z"/><path d="M70.76,10.59v3.36H69.57V5.42h2.77a2.52,2.52,0,0,1,1.9.71A2.58,2.58,0,0,1,74.93,8a2.57,2.57,0,0,1-.69,1.87,2.52,2.52,0,0,1-1.9.71Zm0-.91h1.58a1.23,1.23,0,0,0,1-.47A1.91,1.91,0,0,0,73.75,8a2,2,0,0,0-.35-1.2,1.22,1.22,0,0,0-1.05-.48H70.76Z"/><path d="M80.28,10H77.38V13h3.41v.9h-4.6V5.42h4.57v.91H77.38V9.08h2.89Z"/><path d="M84.6,9.15a1.64,1.64,0,0,0,1.19-.38,1.44,1.44,0,0,0,.39-1.07,1.45,1.45,0,0,0-.42-1.07,1.68,1.68,0,0,0-1.23-.42,1.52,1.52,0,0,0-1.08.41A1.39,1.39,0,0,0,83,7.67H81.88l0,0a2,2,0,0,1,.75-1.69,2.9,2.9,0,0,1,1.92-.65,3.16,3.16,0,0,1,2.07.63,2.18,2.18,0,0,1,.76,1.79A1.86,1.86,0,0,1,87,8.81a2.27,2.27,0,0,1-1,.77,2,2,0,0,1,1.43,2,2.21,2.21,0,0,1-.82,1.82,3.3,3.3,0,0,1-2.13.66,3.18,3.18,0,0,1-2-.63,2.08,2.08,0,0,1-.8-1.83v0h1.14a1.54,1.54,0,0,0,.45,1.13,1.58,1.58,0,0,0,1.17.45,1.85,1.85,0,0,0,1.29-.43,1.46,1.46,0,0,0,.47-1.14,1.49,1.49,0,0,0-.43-1.17,1.86,1.86,0,0,0-1.27-.38h-1v-.9Z"/></g></g></svg>